<svg width="25" height="16" fill="none" xmlns="http://www.w3.org/2000/svg"><path d="M10.453 8.664h-.976V4.448h.976v1.624h.552V4.32h1v4.984h-1V6.92h-.552v1.744zM8.9 8.488a2.335 2.335 0 01-.816-.464 2.355 2.355 0 01-.52-.696 2.634 2.634 0 01-.528.776 2.192 2.192 0 01-.832.52l-.488-.776c.234-.09.434-.203.6-.336.17-.139.309-.29.416-.456.106-.165.184-.341.232-.528.053-.187.08-.379.08-.576h-1.12v-.824h1.12v-.712h1v.712h1.112v.824H8.045c0 .187.026.368.08.544a1.8 1.8 0 00.24.488c.106.155.242.296.408.424.17.123.37.224.6.304l-.472.776zm1.096.592c0 .187.048.376.144.568.096.187.24.36.432.52.192.16.434.301.728.424.293.117.64.2 1.04.248l-.392.824c-.598-.085-1.104-.245-1.52-.48-.416-.235-.736-.523-.96-.864-.224.341-.547.63-.968.864-.422.235-.931.395-1.528.48l-.376-.824c.4-.048.746-.13 1.04-.248.293-.123.536-.264.728-.424a1.69 1.69 0 00.432-.52c.096-.192.144-.381.144-.568v-.12h1.056v.12zm7.615-3.128H14.74v.576h2.872v-.576zm1.048 1.4h-4.968v-2.84h1.048v.648h2.872v-.648h1.048v2.84zm-1.968 1.312v.624H18.7v2.408h-1.056V10.12H13.58v-.832h2.056v-.624h-2.792v-.84h6.664v.84h-2.816z" fill="#EB683F"/><rect x=".5" y=".5" width="24" height="15" rx="7.5" stroke="#EB683F"/></svg>